Coordinates
version=1
nRows=7
nColumns=63
inDegrees=yes

Units are S.I. units (second, meters, Newtons, ...)
If the header above contains a line with 'inDegrees', this indicates whether rotational values are in degrees (yes) or radians (no).

endheader
time	pelvis_tilt	pelvis_list	pelvis_rotation	pelvis_tx	pelvis_ty	pelvis_tz	hip_flexion_r	hip_adduction_r	hip_rotation_r	knee_angle_r	knee_angle_r_beta	ankle_angle_r	subtalar_angle_r	mtp_angle_r	hip_flexion_l	hip_adduction_l	hip_rotation_l	knee_angle_l	knee_angle_l_beta	ankle_angle_l	subtalar_angle_l	mtp_angle_l	L5_S1_Flex_Ext	L5_S1_Lat_Bending	L5_S1_axial_rotation	L4_L5_Flex_Ext	L4_L5_Lat_Bending	L4_L5_axial_rotation	L3_L4_Flex_Ext	L3_L4_Lat_Bending	L3_L4_axial_rotation	L2_L3_Flex_Ext	L2_L3_Lat_Bending	L2_L3_axial_rotation	L1_L2_Flex_Ext	L1_L2_Lat_Bending	L1_L2_axial_rotation	L1_T12_Flex_Ext	L1_T12_Lat_Bending	L1_T12_axial_rotation	Abs_r3	Abs_r2	Abs_r1	Abs_t1	Abs_t2	neck_flexion	neck_bending	neck_rotation	arm_flex_r	arm_add_r	arm_rot_r	elbow_flex_r	pro_sup_r	wrist_flex_r	wrist_dev_r	arm_flex_l	arm_add_l	arm_rot_l	elbow_flex_l	pro_sup_l	wrist_flex_l	wrist_dev_l
      0.00000000	     -1.01136580	     -3.53067258	     93.73259652	      0.08127078	      1.01212198	      0.53135008	      7.66278965	     -4.37967072	     -6.95325075	     19.69633355	      0.34376587	     37.59056096	     15.45803776	      0.00000000	      1.77027174	      0.57048076	      9.26804999	     12.58856089	      0.21971184	     33.59970535	    -11.68830250	      0.00000000	     -0.00050396	     -0.17310884	      2.00429848	     -0.00093590	     -0.23023476	      2.12956713	     -0.00082795	     -0.42089683	      2.12956713	     -0.00057597	     -0.42089683	      1.75376117	     -0.00046797	     -0.35300355	      1.62849251	     -0.00028796	     -0.26814559	      1.50322386	     -0.00359972	     -1.95824182	     11.14730685	      0.00000000	      0.00000000	     17.17039156	     -1.23789267	     -3.75586165	      2.67873747	     -9.78279672	     37.63742911	     50.33915593	     85.66670103	     11.17468508	      5.72278239	      9.06939058	     -7.54338553	     50.77003447	     49.73548685	     51.94831318	      6.14619065	     12.11430740
      0.02040816	     -0.95900580	     -3.53185801	     93.48485301	      0.08114373	      1.01211500	      0.53057598	      7.07695819	     -4.32638499	     -7.52376733	     18.69790326	      0.32633998	     36.75971368	     15.70419649	      0.00000000	      1.27092578	      0.54148971	     10.30998591	     11.29839208	      0.19719414	     33.76114257	    -11.88755696	      0.00000000	      0.01306203	     -0.15031980	      2.05360843	      0.02425749	     -0.19992533	      2.18195896	      0.02145961	     -0.36548756	      2.18195896	      0.01492859	     -0.36548756	      1.79690738	      0.01212940	     -0.30653214	      1.66855685	      0.00746364	     -0.23284537	      1.54020632	      0.09330077	     -1.70044764	     11.42155402	      0.00000000	      0.00000000	     17.26160370	     -1.42803675	     -3.23018672	      1.71666004	     -9.46804366	     35.84879326	     51.19528869	     73.44894628	      9.98172124	      8.60630254	      9.55799489	     -8.05127063	     53.00943273	     49.95327298	     49.12552358	      6.18151450	     12.82241615
      0.04081633	     -0.92273561	     -3.46759989	     93.30173899	      0.08126956	      1.01206487	      0.53000211	      6.51814696	     -4.25208727	     -7.86645191	     17.86792489	      0.31185412	     36.13922845	     15.84956304	      0.00000000	      0.80673619	      0.40779347	     10.15186034	     10.28160050	      0.17944778	     34.10818381	    -10.76627149	      0.00000000	      0.01292746	     -0.13877656	      2.07843033	      0.02400759	     -0.18457282	      2.20833223	      0.02123853	     -0.33742132	      2.20833223	      0.01477480	     -0.33742132	      1.81862654	      0.01200444	     -0.28299315	      1.68872465	      0.00738675	     -0.21496489	      1.55882275	      0.09233957	     -1.56986816	     11.55960598	      0.00000000	      0.00000000	     17.32840773	     -1.50789273	     -2.99651879	      1.59314307	     -9.53890291	     36.15644879	     51.67646207	     64.57257625	      8.49929239	      9.62397783	      9.86976520	     -8.45311738	     54.33097605	     50.19317838	     47.87091721	      6.35971174	     12.87951555
      0.06122449	     -0.91853551	     -3.45367868	     93.14815815	      0.08147955	      1.01181061	      0.52957728	      6.14069330	     -4.19153866	     -7.93774522	     17.27353379	      0.30148004	     35.75835094	     15.76947653	      0.00000000	      0.51477368	      0.33088168	      9.99960105	      9.59502962	      0.16746486	     34.34160294	    -10.06555869	      0.00000000	      0.01583041	     -0.13583093	      2.10864570	      0.02939865	     -0.18065514	      2.24043605	      0.02600778	     -0.33025933	      2.24043605	      0.01809257	     -0.33025933	      1.84506498	      0.01470012	     -0.27698644	      1.71327463	      0.00904550	     -0.21040212	      1.58148427	      0.11307502	     -1.53654669	     11.72765477	      0.00000000	      0.00000000	     17.41713594	     -1.59145950	     -2.94439271	      1.58127995	     -9.60388611	     36.33930221	     51.90715315	     60.89645091	      8.03610473	      9.66839311	     10.12151758	     -8.74938164	     55.22295069	     50.32735548	     47.71683846	      6.80482437	     12.07953675
      0.08163265	     -0.93967795	     -3.58777300	     93.08126371	      0.08169043	      1.01123981	      0.52977470	      6.18091869	     -4.20257087	     -7.88185954	     17.15609996	      0.29943043	     35.64581467	     15.62575178	      0.00000000	      0.66124494	      0.33093195	     10.07124382	      9.49466558	      0.16571318	     34.57943076	     -9.79770629	      0.00000000	      0.03077403	     -0.14079713	      2.13345224	      0.05715044	     -0.18726019	      2.26679301	      0.05055865	     -0.34233415	      2.26679301	      0.03517163	     -0.34233415	      1.86677071	      0.02857676	     -0.28711351	      1.73342995	      0.01758428	     -0.21809476	      1.60008918	      0.21981579	     -1.59272532	     11.86562134	      0.00000000	      0.00000000	     17.50704507	     -1.58994327	     -2.92049174	      1.66360389	     -9.64634182	     36.38106562	     51.99589936	     60.70716771	      8.01096251	      9.56825763	     10.16499927	     -8.89380935	     55.24835650	     50.62575856	     47.72766420	      6.84453911	     11.90926176
      0.10204082	     -0.95004751	     -3.57951251	     93.06959838	      0.08184793	      1.01089489	      0.52922458	      5.85266578	     -4.16530674	     -7.90850684	     16.65971900	      0.29076695	     35.52163072	     15.62676031	      0.00000000	      0.48218374	      0.29635420	      9.89207679	      9.16313521	      0.15992688	     34.63064204	     -9.50500506	      0.00000000	      0.03420893	     -0.14763740	      2.14128888	      0.06352940	     -0.19635774	      2.27511944	      0.05620185	     -0.35896557	      2.27511944	      0.03909739	     -0.35896557	      1.87362777	      0.03176641	     -0.30106218	      1.73979722	      0.01954698	     -0.22869033	      1.60596666	      0.24435097	     -1.67010376	     11.90920639	      0.00000000	      0.00000000	     17.38679798	     -1.53621524	     -3.12826260	      1.72972338	     -9.82573283	     36.82714102	     52.11239128	     60.51301868	      8.23649221	      9.18597953	     10.16136908	     -9.16535717	     55.32310221	     51.04284421	     47.94666318	      7.06600040	     11.12919473
      0.12244898	     -0.98712935	     -3.71477953	     93.18974518	      0.08172248	      1.01051913	      0.52968925	      6.05505127	     -4.21419475	     -7.71434493	     16.85429189	      0.29416289	     35.55820152	     15.20951111	      0.00000000	      0.74148776	      0.33506964	      9.70565331	      9.32299291	      0.16271692	     34.77339199	     -9.23122829	      0.00000000	      0.04522470	     -0.15576772	      2.12519204	      0.08398679	     -0.20717106	      2.25801655	      0.07429966	     -0.37873362	      2.25801655	      0.05168731	     -0.37873362	      1.85954304	      0.04199566	     -0.31764152	      1.72671854	      0.02584139	     -0.24128419	      1.59389403	      0.32303551	     -1.76207555	     11.81968059	      0.00000000	      0.00000000	     17.18569105	     -1.52951696	     -3.12737499	      1.77924050	     -9.90049735	     36.90454804	     52.27606177	     60.32913135	      8.17305995	      9.08788757	     10.30440457	     -9.18606401	     55.26696089	     51.15768434	     47.93520194	      6.97223190	     10.94346008
